<svg xmlns="http://www.w3.org/2000/svg" width="78.15" height="29" viewBox="0 0 78.15 29">
  <g id="News18" transform="translate(-51.7 -8.9)">
    <g id="Group_14" data-name="Group 14" transform="translate(51.7 8.9)">
      <g id="Group_12" data-name="Group 12" transform="translate(0 6.535)">
        <path id="Path_616" data-name="Path 616" d="M108.2,14.653V28.677h6.263v6.671H52.653V14.789c18.516-.136,37.033-.136,55.549-.136m1.089-.953H51.7V36.165h63.718V27.723h-6.127V13.7Z" transform="translate(-51.7 -13.7)" fill="#fff"/>
      </g>
      <g id="Group_13" data-name="Group 13" transform="translate(56.094)">
        <path id="Path_617" data-name="Path 617" d="M114,9.853V29.867H93.989V9.853H114m.953-.953H92.9V30.82h21.92V8.9Z" transform="translate(-92.9 -8.9)" fill="#fff"/>
      </g>
    </g>
    <g id="Group_16" data-name="Group 16" transform="translate(52.789 9.853)">
      <g id="kAFVTK_00000026861250881322392990000000040133957408119205_">
        <g id="Group_15" data-name="Group 15">
          <path id="Path_618" data-name="Path 618" d="M114.312,35.059H52.5V14.5h55.549V28.523h6.263ZM85.857,30.974c.545-2.587.953-4.9,1.5-7.352h.136c.545,2.451,1.089,4.9,1.634,7.488.953-.136,1.906,0,2.859-.136,1.225-4.221,2.315-8.305,3.54-12.526H92.256c-.545,2.178-1.089,4.493-1.634,6.808h-.136c-.408-2.178-.953-4.493-1.362-6.808h-3.4c-.408,2.178-.953,4.357-1.361,6.671-.545-2.451-1.089-4.629-1.634-6.808H79.049c1.225,4.221,2.451,8.441,3.54,12.526A26.234,26.234,0,0,0,85.857,30.974Zm-18.925,0V18.448H63.8V25.12h-.136c-1.362-2.178-2.587-4.493-3.948-6.671H56.585v12.39h3V23.622h.136c1.362,2.451,2.859,4.9,4.221,7.352ZM78.5,28.251H71.969V25.8h5.718V23.077H71.969v-1.77h6.263a18.153,18.153,0,0,0,0-2.723H68.838V31.11H78.5c0-.136,0-.272.136-.272A16.478,16.478,0,0,1,78.5,28.251Zm27.23-5.718a4.314,4.314,0,0,0-1.634-3.4,6.766,6.766,0,0,0-6.808-.136,3.69,3.69,0,0,0-1.634,3.676,3.234,3.234,0,0,0,2.178,2.723,25.406,25.406,0,0,0,3,.953,3.253,3.253,0,0,1,1.906.681c.272.953.136,1.225-.681,1.5a3.778,3.778,0,0,1-2.451,0,2.018,2.018,0,0,1-1.089-1.634H95.66A3.84,3.84,0,0,0,97.7,30.838a7.5,7.5,0,0,0,6.808-.136c1.362-.681,1.634-2.042,1.634-3.4a2.949,2.949,0,0,0-1.906-2.859,18.813,18.813,0,0,0-3.676-1.089,3.5,3.5,0,0,1-1.634-.681c0-.953.272-1.225,1.089-1.362a2.215,2.215,0,0,1,2.723,1.77h2.451C105.326,22.669,105.6,22.669,105.735,22.533Z" transform="translate(-52.5 -7.829)" fill="#152345"/>
          <path id="Path_619" data-name="Path 619" d="M93.6,9.6h20.014V29.614H93.6Zm9.8,9.667a2.848,2.848,0,0,1-.817.545,3.428,3.428,0,0,0-.817,3,4.044,4.044,0,0,0,3.4,3.4,4.736,4.736,0,0,0,5.038-1.77c1.225-1.634.953-4.085-.681-5.038-.136-.136-.136-.136-.136-.272,1.906-1.5,1.225-5.174-1.634-5.854a5.19,5.19,0,0,0-2.042-.136,3.671,3.671,0,0,0-3.268,2.315C101.769,16.816,102.041,18.041,103.4,19.267Zm-3,6.808v-12.8H95.37v2.859c.681.136,1.225,0,1.906.136v9.667A8.3,8.3,0,0,0,100.408,26.074Z" transform="translate(-37.642 -9.6)" fill="#ee3c31"/>
          <path id="Path_620" data-name="Path 620" d="M78.808,29.926H75.54C74.315,25.841,73.225,21.621,72,17.4h3.676c.545,2.178.953,4.357,1.634,6.808.545-2.451.953-4.629,1.361-6.671h3.4c.545,2.315.953,4.493,1.362,6.808h.136c.545-2.315,1.089-4.493,1.634-6.808h3.268c-1.225,4.221-2.315,8.305-3.54,12.526-.953.136-1.906,0-2.859.136-.545-2.587-1.089-5.038-1.634-7.488h-.136C79.761,25.024,79.216,27.475,78.808,29.926Z" transform="translate(-45.451 -6.78)" fill="#fff"/>
          <path id="Path_621" data-name="Path 621" d="M65.847,29.926h-3c-1.362-2.451-2.859-4.9-4.221-7.352H58.5V29.79h-3V17.4h3.131c1.362,2.178,2.587,4.493,3.948,6.671h.136V17.4h3.131Z" transform="translate(-51.415 -6.78)" fill="#fff"/>
          <path id="Path_622" data-name="Path 622" d="M74.2,27.2v2.451c0,.136,0,.136-.136.272H64.4V17.4h9.394a18.179,18.179,0,0,1,0,2.723H67.531a7.67,7.67,0,0,0,0,1.77H73.25v2.723H67.531v2.451C69.846,27.2,72.024,27.2,74.2,27.2Z" transform="translate(-48.198 -6.78)" fill="#fff"/>
          <path id="Path_623" data-name="Path 623" d="M94.282,21.675a.819.819,0,0,1-.545.136H91.286a2.215,2.215,0,0,0-2.723-1.77c-.817.136-1.089.545-1.089,1.362a3.5,3.5,0,0,0,1.634.681,18.812,18.812,0,0,1,3.676,1.089,2.949,2.949,0,0,1,1.906,2.859,3.657,3.657,0,0,1-1.634,3.4,6.759,6.759,0,0,1-6.808.136,3.737,3.737,0,0,1-2.042-3.948h2.859a1.769,1.769,0,0,0,1.089,1.634,3.068,3.068,0,0,0,2.451,0c.817-.272.953-.545.681-1.5a7.873,7.873,0,0,0-1.906-.681,19.28,19.28,0,0,1-3-.953A3.234,3.234,0,0,1,84.207,21.4a3.588,3.588,0,0,1,1.634-3.676,6.766,6.766,0,0,1,6.808.136A6.115,6.115,0,0,1,94.282,21.675Z" transform="translate(-41.047 -6.971)" fill="#fff"/>
          <path id="Path_624" data-name="Path 624" d="M101.256,18.342a3.079,3.079,0,0,1-.953-3.812,3.737,3.737,0,0,1,3.268-2.315,5.19,5.19,0,0,1,2.042.136c2.859.681,3.54,4.357,1.634,5.854,0,.136,0,.272.136.272,1.5.953,1.77,3.54.681,5.038a4.522,4.522,0,0,1-5.038,1.77,4.2,4.2,0,0,1-3.4-3.4,3.428,3.428,0,0,1,.817-3A8.063,8.063,0,0,1,101.256,18.342Zm2.859,1.225a1.328,1.328,0,0,0-1.361,1.5,1.429,1.429,0,0,0,1.5,1.5,1.323,1.323,0,0,0,1.361-1.5A1.511,1.511,0,0,0,104.116,19.567Zm-1.225-3.54a1.22,1.22,0,0,0,1.225,1.225,1.364,1.364,0,0,0,1.362-1.362,1.22,1.22,0,0,0-1.225-1.225A1.459,1.459,0,0,0,102.89,16.027Z" transform="translate(-35.496 -8.675)" fill="#fff"/>
          <path id="Path_625" data-name="Path 625" d="M99.9,25.062a11.021,11.021,0,0,1-3,0V15.4c-.681-.136-1.361,0-1.906-.136V12.4h5.038C99.9,16.621,99.9,20.841,99.9,25.062Z" transform="translate(-37.136 -8.588)" fill="#fff"/>
        </g>
      </g>
      <circle id="Ellipse_15" data-name="Ellipse 15" cx="1.362" cy="1.362" r="1.362" transform="translate(67.258 5.991)" fill="#ee3c31"/>
      <circle id="Ellipse_16" data-name="Ellipse 16" cx="1.498" cy="1.498" r="1.498" transform="translate(67.122 10.892)" fill="#ee3c31"/>
    </g>
  </g>
</svg>
